<?xml version="1.0" encoding="utf-8"?>
<!-- Generator: Adobe Illustrator 23.0.0, SVG Export Plug-In . SVG Version: 6.00 Build 0)  -->
<svg version="1.1" id="Layer_1" xmlns="http://www.w3.org/2000/svg" xmlns:xlink="http://www.w3.org/1999/xlink" x="0px" y="0px"
	 viewBox="0 0 198.29 55.51" style="enable-background:new 0 0 198.29 55.51;" xml:space="preserve">
<style type="text/css">
	.st0{fill-rule:evenodd;clip-rule:evenodd;fill:#BCB7AE;}
	.st1{fill-rule:evenodd;clip-rule:evenodd;fill:#80130B;}
	.st2{fill:#80130B;}
	.st3{fill:#BCB7AE;}
</style>
<g>
	<path class="st0" d="M18.26,10.44h1.22v6.68C6.6,20.74,1.09,25.18,1.23,28.96c0.14,3.77,6.51,6.09,18.25,5.27v10.35h-1.22v-9.09
		C6,35.94,0.51,33.11,0,29.16C-0.16,25.19,4,20.48,18.26,16.28V10.44z"/>
	<path class="st0" d="M28.74,10.41h1.22v3.49c17.51-2.09,24.29,1.51,24.3,6.18c0.02,6.27-12.31,11.04-24.3,13.87v10.68h-1.22V33.02
		c13.98-3.39,24.48-8.32,24.38-12.91c-0.1-4.24-7.98-7.59-24.38-4.87V10.41z"/>
	<path class="st1" d="M20.73,5.46h1.24v13.4C8.83,22.18,3.62,26.1,3.82,28.74c0.22,2.9,7.04,4.34,18.15,2.99v16.93h-1.24V32.99
		C7.26,33.92,2.1,31.59,2.63,28.38c0.56-3.43,6.23-7.17,18.11-10.35V5.46z"/>
	<path class="st1" d="M26.18,5.5h1.24v10.9c15.67-2.39,23.44-0.68,24.2,3.16c0.86,4.41-10.49,9.99-24.2,12.62V48.7h-1.24V31.33
		c15.63-2.86,24.73-8.69,24.09-11.65c-0.63-2.93-8.1-4.29-24.09-1.87V5.5z"/>
	<rect x="23.47" class="st0" width="1.26" height="55.51"/>
	<path class="st2" d="M158.72,29.67l8.34-20.77h2.59l8.3,20.77l-5.18,0l-1.89-5.06h-7.6l-1.98,5.06H158.72z M170.14,22.66
		l-2.99-7.98l-3.12,7.98H170.14z M96.7,22.66h6.08l-2.98-7.95L96.7,22.66z M103.52,24.62h-7.57l-1.99,5.09h-2.57l8.34-20.77h2.59
		l8.3,20.77l-5.18,0L103.52,24.62z M181.04,29.85V9.08h7.95c7.78,0,8.79,8.72,1.27,10.74l6.94,10.04h-5.49l-6.33-9.66v9.66H181.04z
		 M185.39,19.02c3.96,0.37,4.86-2.26,4.93-4.36c0.01-2.32-0.87-4.13-4.93-3.94V19.02z M147.91,34.96l-0.11-1.37
		c1.97-0.04,4.08-0.49,4.08-4.44V9.1h4.55v19.14c0,2.54-1.1,4.48-2.45,5.3C151.56,35.15,149.5,35.24,147.91,34.96 M136.16,29.82
		V9.05h11.22v2.07h-7.07v6.74l7.06-0.01V20l-7.06,0.01v7.53l7.07-0.02v2.28L136.16,29.82z M112.98,29.79V9.02h2.94l12.92,13.97V9.02
		h2.13v20.77h-2.29l-13.57-14.57v14.57H112.98z M77.7,29.76V8.99h4.07v18.73h7.61v2.04H77.7z M60.27,29.73V8.96h7.69
		c8.56,0,8.71,11.95,0.24,11.95h-3.58v8.83H60.27z M64.61,19.41c3.19-0.02,4.92-1.49,4.84-4.89c-0.07-3.05-1.68-4.01-4.84-3.84
		L64.61,19.41z"/>
	<path class="st3" d="M65.46,45.04c-0.73,0.38-1.52,0.56-2.38,0.56c-1.15,0-2.03-0.33-2.66-1.01c-0.63-0.67-0.94-1.63-0.94-2.86
		c0-1.23,0.32-2.19,0.96-2.87c0.64-0.68,1.54-1.02,2.7-1.02c0.66,0,1.43,0.11,2.32,0.33v0.98c-1.01-0.35-1.79-0.52-2.34-0.52
		c-0.8,0-1.42,0.27-1.86,0.81c-0.44,0.54-0.66,1.31-0.66,2.3c0,0.95,0.23,1.69,0.7,2.23c0.47,0.54,1.11,0.81,1.93,0.81
		c0.7,0,1.44-0.21,2.24-0.64V45.04z M70,45.6c-1.05,0-1.89-0.35-2.51-1.06c-0.63-0.7-0.94-1.64-0.94-2.82
		c0-1.18,0.31-2.12,0.94-2.82c0.63-0.7,1.47-1.06,2.51-1.06c1.05,0,1.88,0.35,2.51,1.06c0.63,0.7,0.94,1.64,0.94,2.82
		c0,1.18-0.31,2.12-0.94,2.82C71.88,45.25,71.04,45.6,70,45.6 M70,44.82c0.73,0,1.31-0.27,1.72-0.82c0.41-0.55,0.62-1.31,0.62-2.28
		c0-0.97-0.21-1.72-0.62-2.27c-0.41-0.54-0.99-0.82-1.72-0.82c-0.74,0-1.31,0.27-1.72,0.82c-0.41,0.54-0.62,1.3-0.62,2.27
		c0,0.98,0.21,1.74,0.62,2.28C68.69,44.55,69.26,44.82,70,44.82 M74.91,45.42v-7.38h1.03l3.72,5.7v-5.7h0.9v7.38h-1.02l-3.72-5.7
		v5.7H74.91z M82.01,45.28v-1.04c0.83,0.39,1.52,0.58,2.06,0.58c0.41,0,0.74-0.11,0.99-0.33c0.25-0.22,0.38-0.5,0.38-0.85
		c0-0.29-0.08-0.54-0.25-0.74c-0.17-0.2-0.47-0.43-0.91-0.68l-0.51-0.29c-0.63-0.36-1.07-0.7-1.33-1.01
		c-0.26-0.32-0.39-0.69-0.39-1.11c0-0.57,0.21-1.04,0.62-1.41c0.41-0.37,0.94-0.55,1.58-0.55c0.57,0,1.17,0.1,1.8,0.29v0.96
		c-0.78-0.31-1.36-0.46-1.74-0.46c-0.36,0-0.66,0.1-0.9,0.29c-0.24,0.19-0.36,0.44-0.36,0.73c0,0.25,0.09,0.46,0.26,0.65
		c0.17,0.19,0.49,0.42,0.95,0.68l0.53,0.3c0.64,0.36,1.08,0.7,1.34,1.03c0.25,0.32,0.38,0.71,0.38,1.16c0,0.64-0.24,1.16-0.71,1.54
		c-0.47,0.39-1.1,0.58-1.88,0.58C83.41,45.6,82.78,45.5,82.01,45.28 M87.9,38.04h1.05v4.66c0,0.74,0.14,1.28,0.41,1.62
		c0.27,0.34,0.71,0.51,1.31,0.51c0.58,0,1-0.16,1.24-0.48c0.24-0.32,0.37-0.85,0.37-1.61v-4.69h0.92v4.68
		c0,0.65-0.06,1.14-0.19,1.49c-0.13,0.35-0.35,0.65-0.68,0.91c-0.41,0.33-0.98,0.49-1.7,0.49c-0.93,0-1.62-0.24-2.06-0.71
		c-0.44-0.47-0.66-1.21-0.66-2.21V38.04z M95.04,45.42v-7.38h1.05v6.6h3.32v0.78H95.04z M102.24,45.42v-6.6h-2.62v-0.78h6.28v0.78
		h-2.62v6.6H102.24z M109.97,45.6c-1.05,0-1.89-0.35-2.51-1.06c-0.63-0.7-0.94-1.64-0.94-2.82c0-1.18,0.31-2.12,0.94-2.82
		c0.63-0.7,1.46-1.06,2.51-1.06c1.05,0,1.88,0.35,2.51,1.06c0.63,0.7,0.94,1.64,0.94,2.82c0,1.18-0.31,2.12-0.94,2.82
		C111.85,45.25,111.01,45.6,109.97,45.6 M109.97,44.82c0.73,0,1.31-0.27,1.72-0.82c0.41-0.55,0.62-1.31,0.62-2.28
		c0-0.97-0.21-1.72-0.62-2.27c-0.41-0.54-0.99-0.82-1.72-0.82c-0.74,0-1.31,0.27-1.72,0.82c-0.41,0.54-0.62,1.3-0.62,2.27
		c0,0.98,0.21,1.74,0.62,2.28C108.66,44.55,109.23,44.82,109.97,44.82 M114.88,45.42v-7.38h2.23c0.71,0,1.25,0.16,1.63,0.47
		c0.38,0.31,0.57,0.77,0.57,1.36c0,0.47-0.13,0.89-0.39,1.25c-0.26,0.36-0.63,0.65-1.1,0.84l2.46,3.46H119l-2.11-3.12h-0.97v3.12
		H114.88z M115.92,41.51h0.34c0.65,0,1.14-0.13,1.47-0.39c0.34-0.26,0.5-0.65,0.5-1.15c0-0.76-0.55-1.15-1.66-1.15h-0.66V41.51z
		 M121.34,45.42v-7.38h4.13v0.78h-3.08v2.37h2.58v0.77h-2.58v2.67h3.29v0.78H121.34z M126.43,45.28v-1.04
		c0.83,0.39,1.52,0.58,2.06,0.58c0.41,0,0.74-0.11,0.99-0.33c0.25-0.22,0.38-0.5,0.38-0.85c0-0.29-0.08-0.54-0.25-0.74
		c-0.17-0.2-0.47-0.43-0.91-0.68l-0.51-0.29c-0.63-0.36-1.07-0.7-1.33-1.01c-0.26-0.32-0.39-0.69-0.39-1.11
		c0-0.57,0.21-1.04,0.62-1.41c0.41-0.37,0.94-0.55,1.58-0.55c0.57,0,1.17,0.1,1.8,0.29v0.96c-0.78-0.31-1.36-0.46-1.74-0.46
		c-0.36,0-0.66,0.1-0.9,0.29c-0.24,0.19-0.35,0.44-0.35,0.73c0,0.25,0.09,0.46,0.26,0.65c0.17,0.19,0.49,0.42,0.95,0.68l0.53,0.3
		c0.64,0.36,1.09,0.7,1.34,1.03c0.25,0.32,0.38,0.71,0.38,1.16c0,0.64-0.24,1.16-0.71,1.54c-0.47,0.39-1.1,0.58-1.88,0.58
		C127.83,45.6,127.2,45.5,126.43,45.28 M134.74,45.42l2.93-7.38h1.04l2.88,7.38h-1.13l-0.8-2.04h-3.12l-0.82,2.04H134.74z
		 M136.83,42.6h2.52l-1.26-3.18L136.83,42.6z M142.21,45.28v-1.04c0.83,0.39,1.52,0.58,2.06,0.58c0.41,0,0.74-0.11,0.99-0.33
		c0.25-0.22,0.38-0.5,0.38-0.85c0-0.29-0.08-0.54-0.25-0.74c-0.17-0.2-0.47-0.43-0.91-0.68l-0.51-0.29
		c-0.63-0.36-1.07-0.7-1.33-1.01c-0.26-0.32-0.39-0.69-0.39-1.11c0-0.57,0.21-1.04,0.62-1.41c0.41-0.37,0.94-0.55,1.58-0.55
		c0.57,0,1.17,0.1,1.8,0.29v0.96c-0.78-0.31-1.36-0.46-1.74-0.46c-0.36,0-0.66,0.1-0.9,0.29c-0.24,0.19-0.35,0.44-0.35,0.73
		c0,0.25,0.09,0.46,0.26,0.65c0.17,0.19,0.49,0.42,0.95,0.68l0.53,0.3c0.64,0.36,1.08,0.7,1.34,1.03c0.25,0.32,0.38,0.71,0.38,1.16
		c0,0.64-0.24,1.16-0.71,1.54c-0.47,0.39-1.1,0.58-1.88,0.58C143.61,45.6,142.98,45.5,142.21,45.28 M147.71,45.28v-1.04
		c0.83,0.39,1.52,0.58,2.06,0.58c0.41,0,0.74-0.11,0.99-0.33c0.25-0.22,0.38-0.5,0.38-0.85c0-0.29-0.08-0.54-0.25-0.74
		c-0.16-0.2-0.47-0.43-0.91-0.68l-0.51-0.29c-0.63-0.36-1.07-0.7-1.33-1.01c-0.26-0.32-0.39-0.69-0.39-1.11
		c0-0.57,0.21-1.04,0.62-1.41c0.41-0.37,0.94-0.55,1.58-0.55c0.57,0,1.17,0.1,1.8,0.29v0.96c-0.78-0.31-1.36-0.46-1.74-0.46
		c-0.36,0-0.66,0.1-0.9,0.29c-0.24,0.19-0.35,0.44-0.35,0.73c0,0.25,0.09,0.46,0.26,0.65c0.17,0.19,0.49,0.42,0.95,0.68l0.53,0.3
		c0.64,0.36,1.09,0.7,1.34,1.03c0.25,0.32,0.38,0.71,0.38,1.16c0,0.64-0.24,1.16-0.71,1.54c-0.47,0.39-1.1,0.58-1.88,0.58
		C149.11,45.6,148.48,45.5,147.71,45.28 M156.68,45.6c-1.05,0-1.89-0.35-2.51-1.06c-0.63-0.7-0.94-1.64-0.94-2.82
		c0-1.18,0.31-2.12,0.94-2.82c0.63-0.7,1.46-1.06,2.51-1.06c1.05,0,1.89,0.35,2.51,1.06c0.63,0.7,0.94,1.64,0.94,2.82
		c0,1.18-0.31,2.12-0.94,2.82C158.57,45.25,157.73,45.6,156.68,45.6 M156.68,44.82c0.73,0,1.31-0.27,1.72-0.82
		c0.41-0.55,0.62-1.31,0.62-2.28c0-0.97-0.21-1.72-0.62-2.27c-0.41-0.54-0.99-0.82-1.72-0.82c-0.74,0-1.31,0.27-1.72,0.82
		c-0.41,0.54-0.62,1.3-0.62,2.27c0,0.98,0.21,1.74,0.62,2.28C155.37,44.55,155.95,44.82,156.68,44.82 M167.15,45.04
		c-0.73,0.38-1.52,0.56-2.38,0.56c-1.15,0-2.03-0.33-2.66-1.01c-0.62-0.67-0.94-1.63-0.94-2.86c0-1.23,0.32-2.19,0.96-2.87
		c0.64-0.68,1.54-1.02,2.7-1.02c0.66,0,1.43,0.11,2.32,0.33v0.98c-1.01-0.35-1.79-0.52-2.34-0.52c-0.8,0-1.42,0.27-1.86,0.81
		c-0.44,0.54-0.66,1.31-0.66,2.3c0,0.95,0.23,1.69,0.7,2.23c0.47,0.54,1.11,0.81,1.93,0.81c0.7,0,1.44-0.21,2.24-0.64V45.04z
		 M168.66,38.04h1.05v7.38h-1.05V38.04z M170.74,45.42l2.93-7.38h1.04l2.88,7.38h-1.13l-0.8-2.04h-3.12l-0.82,2.04H170.74z
		 M172.83,42.6h2.52l-1.26-3.18L172.83,42.6z M178.66,45.42v-7.38h2.45c0.73,0,1.32,0.08,1.77,0.25c0.45,0.16,0.84,0.44,1.17,0.83
		c0.52,0.62,0.78,1.43,0.78,2.44c0,1.14-0.31,2.06-0.92,2.77c-0.33,0.39-0.72,0.67-1.15,0.84c-0.44,0.17-0.98,0.25-1.64,0.25H178.66
		z M179.71,44.64h1.34c0.96,0,1.64-0.26,2.04-0.77c0.43-0.55,0.64-1.29,0.64-2.21c0-0.87-0.21-1.55-0.63-2.04
		c-0.26-0.3-0.56-0.51-0.92-0.62c-0.35-0.11-0.89-0.17-1.61-0.17h-0.86V44.64z M189.33,45.6c-1.05,0-1.89-0.35-2.51-1.06
		c-0.63-0.7-0.94-1.64-0.94-2.82c0-1.18,0.31-2.12,0.94-2.82c0.63-0.7,1.47-1.06,2.51-1.06c1.05,0,1.88,0.35,2.51,1.06
		c0.63,0.7,0.94,1.64,0.94,2.82c0,1.18-0.31,2.12-0.94,2.82C191.22,45.25,190.38,45.6,189.33,45.6 M189.33,44.82
		c0.73,0,1.31-0.27,1.72-0.82c0.41-0.55,0.62-1.31,0.62-2.28c0-0.97-0.21-1.72-0.62-2.27c-0.41-0.54-0.99-0.82-1.72-0.82
		c-0.73,0-1.31,0.27-1.72,0.82c-0.41,0.54-0.62,1.3-0.62,2.27c0,0.98,0.21,1.74,0.62,2.28C188.02,44.55,188.6,44.82,189.33,44.82
		 M193.79,45.28v-1.04c0.83,0.39,1.52,0.58,2.05,0.58c0.41,0,0.74-0.11,0.99-0.33c0.25-0.22,0.38-0.5,0.38-0.85
		c0-0.29-0.08-0.54-0.25-0.74c-0.17-0.2-0.47-0.43-0.91-0.68l-0.51-0.29c-0.63-0.36-1.07-0.7-1.33-1.01
		c-0.26-0.32-0.39-0.69-0.39-1.11c0-0.57,0.21-1.04,0.62-1.41c0.41-0.37,0.94-0.55,1.58-0.55c0.57,0,1.17,0.1,1.8,0.29v0.96
		c-0.78-0.31-1.36-0.46-1.74-0.46c-0.36,0-0.66,0.1-0.9,0.29c-0.24,0.19-0.35,0.44-0.35,0.73c0,0.25,0.09,0.46,0.26,0.65
		c0.17,0.19,0.49,0.42,0.95,0.68l0.53,0.3c0.64,0.36,1.08,0.7,1.34,1.03c0.25,0.32,0.38,0.71,0.38,1.16c0,0.64-0.24,1.16-0.71,1.54
		c-0.47,0.39-1.1,0.58-1.88,0.58C195.2,45.6,194.57,45.5,193.79,45.28"/>
</g>
</svg>
